<?xml version="1.0" ?><!-- Uploaded to: SVG Repo, www.svgrepo.com, Generator: SVG Repo Mixer Tools -->
<svg fill="#000000" width="800px" height="800px" viewBox="0 0 512 512" data-name="Layer 1" id="Layer_1" xmlns="http://www.w3.org/2000/svg"><title/><path d="M431.58,32.35a5.93,5.93,0,0,0-6.53-2.24C248.25,82.58,138,157.69,97.48,253.36c-33.9,80-6.33,145.74-.61,157.86-14.52,39.23-17.47,63.67-17.54,64.32a6,6,0,0,0,5.3,6.57l.63,0a6,6,0,0,0,5.93-5.33c.07-.62,2.88-23.4,16.33-60.17,9.37.62,18.63,1.09,27.57,1.09C265.81,417.73,349,352,365.16,234.05,382,111.18,431.13,40,431.62,39.26A6,6,0,0,0,431.58,32.35ZM353.36,232.44C330.81,396.69,183.25,409.08,111.93,405.1c26.47-66.66,85.64-171,216.14-274.67a6,6,0,0,0-7.42-9.35C192.08,223.25,131.48,326.46,103.24,395a190.72,190.72,0,0,1,5.22-137C146.41,168.49,249,97.25,413.31,46.13,398,72.66,366.49,136.72,353.36,232.44Z"/></svg>